<svg class="diagram-root" style="background: #f5f6f6" xmlns="http://www.w3.org/2000/svg" xmlns:xlink="http://www.w3.org/1999/xlink"><style>.diagram-root { font-family: "Helvetica Neue", sans-serif; font-size: 12px; } .t { overflow: visible; } .t-bg { y: 40; fill: #fff;   } .th { fill: #005aa0;   } .tht { fill: #fff; font-size: 14px;  } .tf { fill: #323c46; overflow: visible; } .tf.pk { fill: #005aa0; font-weight: bold; } .tf.fk { font-weight: bold; } .ty { fill: #adb1b5; font-weight: normal; text-anchor: end; } .r { fill: transparent; stroke: #c3c3c3; stroke-width: 1; } .l { stroke: 1; } .i { fill: #c2c7ce; stroke: #c2c7ce; } .i.ix { fill: #afb3b6; stroke: #000; } .fa { fill: transparent; overflow: visible; } .fa .bg.hover { fill: #f7f7f7; } .c { cy: 12; r: 4; stroke: #d2d2dc; fill: #d2d2dc; } .hr { fill: transparent; stroke: #323c46; stroke-opacity: 0.035; stroke-width: 13; } .dc { stroke: #fa5a3c; fill: #fa5a3c; } .x { stroke: white; stroke-width: 1; } .hl .th { fill: #1b9bff; } .hl .tht {  } .fhl .bg { fill: #e7f4ff; } .fhls .bg {  } .r.hl { stroke: #1b9bff; } .dim { opacity: 0.25; }</style><g class="drawing-wrapper" transform="translate(76.78, 24.55555555555566) scale(1,1)"><g class="rs"><path d="M 570.33 513.56 m -1, 0 a 1,1 0 1,0 2,0 a 1,1 0 1,0 -2,0 M 570.33 513.56 m -0.5, 0 a 0.5,0.5 0 1,0 1,0 a 0.5,0.5 0 1,0 -1,0  M570.33 513.56 L570.33 513.56 582.33 513.56 M 570.33 519.56 m -1, 0 a 1,1 0 1,0 2,0 a 1,1 0 1,0 -2,0 M 570.33 519.56 m -0.5, 0 a 0.5,0.5 0 1,0 1,0 a 0.5,0.5 0 1,0 -1,0  M570.33 519.56 L570.33 519.56 577.33 513.56 570.33 507.55999999999995 M 570.33 507.55999999999995 m -1, 0 a 1,1 0 1,0 2,0 a 1,1 0 1,0 -2,0 M 570.33 507.55999999999995 m -0.5, 0 a 0.5,0.5 0 1,0 1,0 a 0.5,0.5 0 1,0 -1,0  M582.33 513.56 C 632.33 513.56, 674.5700000000002 150.32999999999998, 511.93 150.32999999999998 M 499.93 150.32999999999998 m -1, 0 a 1,1 0 1,0 2,0 a 1,1 0 1,0 -2,0 M 499.93 150.32999999999998 m -0.5, 0 a 0.5,0.5 0 1,0 1,0 a 0.5,0.5 0 1,0 -1,0  M499.93 150.32999999999998 L499.93 150.32999999999998 511.93 150.32999999999998 M505.93 156.32999999999998 L505.93 156.32999999999998 505.93 144.32999999999998" id="h1769178599" class="r"></path><path d="M 376.07 613.56 m -1, 0 a 1,1 0 1,0 2,0 a 1,1 0 1,0 -2,0 M 376.07 613.56 m -0.5, 0 a 0.5,0.5 0 1,0 1,0 a 0.5,0.5 0 1,0 -1,0  M376.07 613.56 L376.07 613.56 364.07 613.56 M 376.07 619.56 m -1, 0 a 1,1 0 1,0 2,0 a 1,1 0 1,0 -2,0 M 376.07 619.56 m -0.5, 0 a 0.5,0.5 0 1,0 1,0 a 0.5,0.5 0 1,0 -1,0  M376.07 619.56 L376.07 619.56 369.07 613.56 376.07 607.56 M 376.07 607.56 m -1, 0 a 1,1 0 1,0 2,0 a 1,1 0 1,0 -2,0 M 376.07 607.56 m -0.5, 0 a 0.5,0.5 0 1,0 1,0 a 0.5,0.5 0 1,0 -1,0  M364.07 613.56 Q 317.96 613.56, 271.84 642.5 T 179.61 671.44 M 167.61 671.44 m -1, 0 a 1,1 0 1,0 2,0 a 1,1 0 1,0 -2,0 M 167.61 671.44 m -0.5, 0 a 0.5,0.5 0 1,0 1,0 a 0.5,0.5 0 1,0 -1,0  M167.61 671.44 L167.61 671.44 179.61 671.44 M173.61 677.44 L173.61 677.44 173.61 665.44" id="h3166192057" class="r"></path><path d="M 202.68 97 m -1, 0 a 1,1 0 1,0 2,0 a 1,1 0 1,0 -2,0 M 202.68 97 m -0.5, 0 a 0.5,0.5 0 1,0 1,0 a 0.5,0.5 0 1,0 -1,0  M202.68 97 L202.68 97 214.68 97 M 202.68 103 m -1, 0 a 1,1 0 1,0 2,0 a 1,1 0 1,0 -2,0 M 202.68 103 m -0.5, 0 a 0.5,0.5 0 1,0 1,0 a 0.5,0.5 0 1,0 -1,0  M202.68 103 L202.68 103 209.68 97 202.68 91 M 202.68 91 m -1, 0 a 1,1 0 1,0 2,0 a 1,1 0 1,0 -2,0 M 202.68 91 m -0.5, 0 a 0.5,0.5 0 1,0 1,0 a 0.5,0.5 0 1,0 -1,0  M214.68 97 Q 252.03 97, 289.38 305.28 T 364.07 513.56 M 376.07 513.56 m -1, 0 a 1,1 0 1,0 2,0 a 1,1 0 1,0 -2,0 M 376.07 513.56 m -0.5, 0 a 0.5,0.5 0 1,0 1,0 a 0.5,0.5 0 1,0 -1,0  M376.07 513.56 L376.07 513.56 364.07 513.56 M370.07 519.56 L370.07 519.56 370.07 507.55999999999995" id="h1126549921" class="r"></path><path d="M 202.68 122 m -1, 0 a 1,1 0 1,0 2,0 a 1,1 0 1,0 -2,0 M 202.68 122 m -0.5, 0 a 0.5,0.5 0 1,0 1,0 a 0.5,0.5 0 1,0 -1,0  M202.68 122 L202.68 122 214.68 122 M 202.68 128 m -1, 0 a 1,1 0 1,0 2,0 a 1,1 0 1,0 -2,0 M 202.68 128 m -0.5, 0 a 0.5,0.5 0 1,0 1,0 a 0.5,0.5 0 1,0 -1,0  M202.68 128 L202.68 128 209.68 122 202.68 116 M 202.68 116 m -1, 0 a 1,1 0 1,0 2,0 a 1,1 0 1,0 -2,0 M 202.68 116 m -0.5, 0 a 0.5,0.5 0 1,0 1,0 a 0.5,0.5 0 1,0 -1,0  M214.68 122 Q 252.03 122, 289.38 330.28 T 364.07 538.56 M 376.07 538.56 m -1, 0 a 1,1 0 1,0 2,0 a 1,1 0 1,0 -2,0 M 376.07 538.56 m -0.5, 0 a 0.5,0.5 0 1,0 1,0 a 0.5,0.5 0 1,0 -1,0  M376.07 538.56 L376.07 538.56 364.07 538.56 M370.07 544.56 L370.07 544.56 370.07 532.56" id="h1636153862" class="r"></path><path d="M 1113.42 282.07 m -1, 0 a 1,1 0 1,0 2,0 a 1,1 0 1,0 -2,0 M 1113.42 282.07 m -0.5, 0 a 0.5,0.5 0 1,0 1,0 a 0.5,0.5 0 1,0 -1,0  M1113.42 282.07 L1113.42 282.07 1101.42 282.07 M 1113.42 288.07 m -1, 0 a 1,1 0 1,0 2,0 a 1,1 0 1,0 -2,0 M 1113.42 288.07 m -0.5, 0 a 0.5,0.5 0 1,0 1,0 a 0.5,0.5 0 1,0 -1,0  M1113.42 288.07 L1113.42 288.07 1106.42 282.07 1113.42 276.07 M 1113.42 276.07 m -1, 0 a 1,1 0 1,0 2,0 a 1,1 0 1,0 -2,0 M 1113.42 276.07 m -0.5, 0 a 0.5,0.5 0 1,0 1,0 a 0.5,0.5 0 1,0 -1,0  M1101.42 282.07 Q 971.65 282.07, 841.88 397.81 T 582.33 513.56 M 570.33 513.56 m -1, 0 a 1,1 0 1,0 2,0 a 1,1 0 1,0 -2,0 M 570.33 513.56 m -0.5, 0 a 0.5,0.5 0 1,0 1,0 a 0.5,0.5 0 1,0 -1,0  M570.33 513.56 L570.33 513.56 582.33 513.56 M576.33 519.56 L576.33 519.56 576.33 507.55999999999995" id="h637907841" class="r"></path><path d="M 1113.42 307.07 m -1, 0 a 1,1 0 1,0 2,0 a 1,1 0 1,0 -2,0 M 1113.42 307.07 m -0.5, 0 a 0.5,0.5 0 1,0 1,0 a 0.5,0.5 0 1,0 -1,0  M1113.42 307.07 L1113.42 307.07 1101.42 307.07 M 1113.42 313.07 m -1, 0 a 1,1 0 1,0 2,0 a 1,1 0 1,0 -2,0 M 1113.42 313.07 m -0.5, 0 a 0.5,0.5 0 1,0 1,0 a 0.5,0.5 0 1,0 -1,0  M1113.42 313.07 L1113.42 313.07 1106.42 307.07 1113.42 301.07 M 1113.42 301.07 m -1, 0 a 1,1 0 1,0 2,0 a 1,1 0 1,0 -2,0 M 1113.42 301.07 m -0.5, 0 a 0.5,0.5 0 1,0 1,0 a 0.5,0.5 0 1,0 -1,0  M1101.42 307.07 Q 971.65 307.07, 841.88 422.81 T 582.33 538.56 M 570.33 538.56 m -1, 0 a 1,1 0 1,0 2,0 a 1,1 0 1,0 -2,0 M 570.33 538.56 m -0.5, 0 a 0.5,0.5 0 1,0 1,0 a 0.5,0.5 0 1,0 -1,0  M570.33 538.56 L570.33 538.56 582.33 538.56 M576.33 544.56 L576.33 544.56 576.33 532.56" id="h1174101685" class="r"></path><path d="M 701.67 87.44 m -1, 0 a 1,1 0 1,0 2,0 a 1,1 0 1,0 -2,0 M 701.67 87.44 m -0.5, 0 a 0.5,0.5 0 1,0 1,0 a 0.5,0.5 0 1,0 -1,0  M701.67 87.44 L701.67 87.44 689.67 87.44 M 701.67 93.44 m -1, 0 a 1,1 0 1,0 2,0 a 1,1 0 1,0 -2,0 M 701.67 93.44 m -0.5, 0 a 0.5,0.5 0 1,0 1,0 a 0.5,0.5 0 1,0 -1,0  M701.67 93.44 L701.67 93.44 694.67 87.44 701.67 81.44 M 701.67 81.44 m -1, 0 a 1,1 0 1,0 2,0 a 1,1 0 1,0 -2,0 M 701.67 81.44 m -0.5, 0 a 0.5,0.5 0 1,0 1,0 a 0.5,0.5 0 1,0 -1,0  M689.67 87.44 Q 662.84 87.44, 636 300.5 T 582.33 513.56 M 570.33 513.56 m -1, 0 a 1,1 0 1,0 2,0 a 1,1 0 1,0 -2,0 M 570.33 513.56 m -0.5, 0 a 0.5,0.5 0 1,0 1,0 a 0.5,0.5 0 1,0 -1,0  M570.33 513.56 L570.33 513.56 582.33 513.56 M576.33 519.56 L576.33 519.56 576.33 507.55999999999995" id="h2044691777" class="r"></path><path d="M 701.67 112.44 m -1, 0 a 1,1 0 1,0 2,0 a 1,1 0 1,0 -2,0 M 701.67 112.44 m -0.5, 0 a 0.5,0.5 0 1,0 1,0 a 0.5,0.5 0 1,0 -1,0  M701.67 112.44 L701.67 112.44 689.67 112.44 M 701.67 118.44 m -1, 0 a 1,1 0 1,0 2,0 a 1,1 0 1,0 -2,0 M 701.67 118.44 m -0.5, 0 a 0.5,0.5 0 1,0 1,0 a 0.5,0.5 0 1,0 -1,0  M701.67 118.44 L701.67 118.44 694.67 112.44 701.67 106.44 M 701.67 106.44 m -1, 0 a 1,1 0 1,0 2,0 a 1,1 0 1,0 -2,0 M 701.67 106.44 m -0.5, 0 a 0.5,0.5 0 1,0 1,0 a 0.5,0.5 0 1,0 -1,0  M689.67 112.44 Q 662.84 112.44, 636 325.5 T 582.33 538.56 M 570.33 538.56 m -1, 0 a 1,1 0 1,0 2,0 a 1,1 0 1,0 -2,0 M 570.33 538.56 m -0.5, 0 a 0.5,0.5 0 1,0 1,0 a 0.5,0.5 0 1,0 -1,0  M570.33 538.56 L570.33 538.56 582.33 538.56 M576.33 544.56 L576.33 544.56 576.33 532.56" id="h2773474623" class="r"></path><path d="M 720.22 653.67 m -1, 0 a 1,1 0 1,0 2,0 a 1,1 0 1,0 -2,0 M 720.22 653.67 m -0.5, 0 a 0.5,0.5 0 1,0 1,0 a 0.5,0.5 0 1,0 -1,0  M720.22 653.67 L720.22 653.67 708.22 653.67 M 720.22 659.67 m -1, 0 a 1,1 0 1,0 2,0 a 1,1 0 1,0 -2,0 M 720.22 659.67 m -0.5, 0 a 0.5,0.5 0 1,0 1,0 a 0.5,0.5 0 1,0 -1,0  M720.22 659.67 L720.22 659.67 713.22 653.67 720.22 647.67 M 720.22 647.67 m -1, 0 a 1,1 0 1,0 2,0 a 1,1 0 1,0 -2,0 M 720.22 647.67 m -0.5, 0 a 0.5,0.5 0 1,0 1,0 a 0.5,0.5 0 1,0 -1,0  M708.22 653.67 Q 676.75 653.67, 645.28 583.62 T 582.33 513.56 M 570.33 513.56 m -1, 0 a 1,1 0 1,0 2,0 a 1,1 0 1,0 -2,0 M 570.33 513.56 m -0.5, 0 a 0.5,0.5 0 1,0 1,0 a 0.5,0.5 0 1,0 -1,0  M570.33 513.56 L570.33 513.56 582.33 513.56 M576.33 519.56 L576.33 519.56 576.33 507.55999999999995" id="h1956254645" class="r"></path><path d="M 720.22 678.67 m -1, 0 a 1,1 0 1,0 2,0 a 1,1 0 1,0 -2,0 M 720.22 678.67 m -0.5, 0 a 0.5,0.5 0 1,0 1,0 a 0.5,0.5 0 1,0 -1,0  M720.22 678.67 L720.22 678.67 708.22 678.67 M 720.22 684.67 m -1, 0 a 1,1 0 1,0 2,0 a 1,1 0 1,0 -2,0 M 720.22 684.67 m -0.5, 0 a 0.5,0.5 0 1,0 1,0 a 0.5,0.5 0 1,0 -1,0  M720.22 684.67 L720.22 684.67 713.22 678.67 720.22 672.67 M 720.22 672.67 m -1, 0 a 1,1 0 1,0 2,0 a 1,1 0 1,0 -2,0 M 720.22 672.67 m -0.5, 0 a 0.5,0.5 0 1,0 1,0 a 0.5,0.5 0 1,0 -1,0  M708.22 678.67 Q 676.75 678.67, 645.28 608.62 T 582.33 538.56 M 570.33 538.56 m -1, 0 a 1,1 0 1,0 2,0 a 1,1 0 1,0 -2,0 M 570.33 538.56 m -0.5, 0 a 0.5,0.5 0 1,0 1,0 a 0.5,0.5 0 1,0 -1,0  M570.33 538.56 L570.33 538.56 582.33 538.56 M576.33 544.56 L576.33 544.56 576.33 532.56" id="h2350068187" class="r"></path></g><g class="hrs"></g><g class="ts"><svg width="212.04" height="125" x="287.89" y="93.33" id="h3338615462" class="t"><rect height="40" width="212.04" class="th"></rect><text x="13" y="25" class="tht">DATA_SOURCE</text><rect height="85" width="212.04" class="t-bg"></rect><text x="13" y="61" class="tf pk">DATA_SOURCE<tspan x="199.04" class="ty">VARCHAR</tspan></text><path d="M7,14A2,2 0 0,1 5,12A2,2 0 0,1 7,10A2,2 0 0,1 9,12A2,2 0 0,1 7,14M12.65,10C11.83,7.67 9.61,6 7, 6A6, 6 0 0, 0 1, 12A6, 6 0 0, 0 7, 18C9.61, 18 11.83, 16.33 12.65, 14H17V18H21V14H23V10H12.65Z" class="i pk" transform="translate(121.24898437499999, 48) scale(0.65)"></path><text x="13" y="86" class="tf">SOURCE_URL<tspan x="199.04" class="ty">varchar</tspan></text><text x="13" y="111" class="tf">SOURCE_TYPE<tspan x="199.04" class="ty">varchar</tspan></text></svg><svg width="194.26" height="175" x="376.07" y="456.56" id="h913074481" class="t"><rect height="40" width="194.26" class="th"></rect><text x="13" y="25" class="tht">NATURAL_DISASTER</text><rect height="135" width="194.26" class="t-bg"></rect><text x="13" y="61" class="tf pk">DATA_SOURCE<tspan x="181.26" class="ty">varchar</tspan></text><path d="M7,14A2,2 0 0,1 5,12A2,2 0 0,1 7,10A2,2 0 0,1 9,12A2,2 0 0,1 7,14M12.65,10C11.83,7.67 9.61,6 7, 6A6, 6 0 0, 0 1, 12A6, 6 0 0, 0 7, 18C9.61, 18 11.83, 16.33 12.65, 14H17V18H21V14H23V10H12.65Z" class="i pk" transform="translate(121.24632812499999, 48) scale(0.65)"></path><text x="13" y="86" class="tf pk">EVENT_ID<tspan x="181.26" class="ty">varchar</tspan></text><path d="M7,14A2,2 0 0,1 5,12A2,2 0 0,1 7,10A2,2 0 0,1 9,12A2,2 0 0,1 7,14M12.65,10C11.83,7.67 9.61,6 7, 6A6, 6 0 0, 0 1, 12A6, 6 0 0, 0 7, 18C9.61, 18 11.83, 16.33 12.65, 14H17V18H21V14H23V10H12.65Z" class="i pk" transform="translate(121.24632812499999, 73) scale(0.65)"></path><text x="13" y="111" class="tf">event_date<tspan x="181.26" class="ty">date</tspan></text><text x="13" y="136" class="tf">event_type<tspan x="181.26" class="ty">varchar</tspan></text><text x="13" y="161" class="tf fk">state<tspan x="181.26" class="ty">varchar</tspan></text></svg><svg width="187.83" height="225" x="-20.22" y="564.44" id="h3549374631" class="t"><rect height="40" width="187.83" class="th"></rect><text x="13" y="25" class="tht">LOCATION</text><rect height="185" width="187.83" class="t-bg"></rect><text x="13" y="61" class="tf pk">ZipCode<tspan x="174.83" class="ty">VARCHAR</tspan></text><path d="M7,14A2,2 0 0,1 5,12A2,2 0 0,1 7,10A2,2 0 0,1 9,12A2,2 0 0,1 7,14M12.65,10C11.83,7.67 9.61,6 7, 6A6, 6 0 0, 0 1, 12A6, 6 0 0, 0 7, 18C9.61, 18 11.83, 16.33 12.65, 14H17V18H21V14H23V10H12.65Z" class="i pk" transform="translate(97.03898437500001, 48) scale(0.65)"></path><text x="13" y="86" class="tf">City<tspan x="174.83" class="ty">VARCHAR</tspan></text><text x="13" y="111" class="tf fk">State<tspan x="174.83" class="ty">VARCHAR</tspan></text><text x="13" y="136" class="tf">Latitude<tspan x="174.83" class="ty">FLOAT</tspan></text><text x="13" y="161" class="tf">Longitude<tspan x="174.83" class="ty">FLOAT</tspan></text><text x="13" y="186" class="tf">Classification<tspan x="174.83" class="ty">VARCHAR?</tspan></text><text x="13" y="211" class="tf">Population<tspan x="174.83" class="ty">INTEGER?</tspan></text></svg><svg width="257.46" height="500" x="-54.78" y="15" id="h3237304865" class="t"><rect height="40" width="257.46" class="th"></rect><text x="13" y="25" class="tht">FEMA</text><rect height="460" width="257.46" class="t-bg"></rect><text x="13" y="61" class="tf pk">ID<tspan x="244.45999999999998" class="ty">int</tspan></text><path d="M7,14A2,2 0 0,1 5,12A2,2 0 0,1 7,10A2,2 0 0,1 9,12A2,2 0 0,1 7,14M12.65,10C11.83,7.67 9.61,6 7, 6A6, 6 0 0, 0 1, 12A6, 6 0 0, 0 7, 18C9.61, 18 11.83, 16.33 12.65, 14H17V18H21V14H23V10H12.65Z" class="i pk" transform="translate(211.78617187499998, 48) scale(0.65)"></path><text x="13" y="86" class="tf fk">DATA_SOURCE<tspan x="244.45999999999998" class="ty">varchar</tspan></text><text x="13" y="111" class="tf fk">Disaster_Number<tspan x="244.45999999999998" class="ty">varchar</tspan></text><path d="M22,18V22H18V19H15V16H12L9.74,13.74C9.19,13.91 8.61,14 8,14A6,6 0 0,1 2,8A6,6 0 0,1 8,2A6,6 0 0,1 14,8C14,8.61 13.91, 9.19 13.74, 9.74L22, 18M7, 5A2, 2 0 0, 0 5, 7A2, 2 0 0, 0 7, 9A2, 2 0 0, 0 9, 7A2, 2 0 0, 0 7, 5Z" class="i uq" transform="translate(188.44632812499998, 100.5) scale(0.5)"></path><text x="13" y="136" class="tf">IH_Program_Declared<tspan x="244.45999999999998" class="ty">boolean?</tspan></text><text x="13" y="161" class="tf">IA_Program_Declared<tspan x="244.45999999999998" class="ty">boolean?</tspan></text><text x="13" y="186" class="tf">PA_Program_Declared<tspan x="244.45999999999998" class="ty">boolean?</tspan></text><text x="13" y="211" class="tf">HM_Program_Declared<tspan x="244.45999999999998" class="ty">boolean?</tspan></text><text x="13" y="236" class="tf">State<tspan x="244.45999999999998" class="ty">varchar?</tspan></text><text x="13" y="261" class="tf">Declaration_Date<tspan x="244.45999999999998" class="ty">date</tspan></text><text x="13" y="286" class="tf">Disaster_Type<tspan x="244.45999999999998" class="ty">varchar?</tspan></text><text x="13" y="311" class="tf">Incident_Type<tspan x="244.45999999999998" class="ty">varchar?</tspan></text><text x="13" y="336" class="tf">Title<tspan x="244.45999999999998" class="ty">varchar?</tspan></text><text x="13" y="361" class="tf">Incident_Begin_Date<tspan x="244.45999999999998" class="ty">date</tspan></text><text x="13" y="386" class="tf">Incident_End_Date<tspan x="244.45999999999998" class="ty">date?</tspan></text><text x="13" y="411" class="tf">Disaster_Close_Out_Date<tspan x="244.45999999999998" class="ty">date?</tspan></text><text x="13" y="436" class="tf">Place_Code<tspan x="244.45999999999998" class="ty">integer?</tspan></text><text x="13" y="461" class="tf">Declared_County_Area<tspan x="244.45999999999998" class="ty">varchar?</tspan></text><text x="13" y="486" class="tf">Declaration_Request_Number<tspan x="244.45999999999998" class="ty">integer?</tspan></text></svg><svg width="322.29" height="1050" x="1113.42" y="200.07" id="h33294723" class="t"><rect height="40" width="322.29" class="th"></rect><text x="13" y="25" class="tht">WILD_FIRE</text><rect height="1010" width="322.29" class="t-bg"></rect><text x="13" y="61" class="tf pk">ID<tspan x="309.29" class="ty">int</tspan></text><path d="M7,14A2,2 0 0,1 5,12A2,2 0 0,1 7,10A2,2 0 0,1 9,12A2,2 0 0,1 7,14M12.65,10C11.83,7.67 9.61,6 7, 6A6, 6 0 0, 0 1, 12A6, 6 0 0, 0 7, 18C9.61, 18 11.83, 16.33 12.65, 14H17V18H21V14H23V10H12.65Z" class="i pk" transform="translate(276.616171875, 48) scale(0.65)"></path><text x="13" y="86" class="tf fk">DATA_SOURCE<tspan x="309.29" class="ty">varchar</tspan></text><text x="13" y="111" class="tf fk">OBJECTID<tspan x="309.29" class="ty">varchar</tspan></text><path d="M22,18V22H18V19H15V16H12L9.74,13.74C9.19,13.91 8.61,14 8,14A6,6 0 0,1 2,8A6,6 0 0,1 8,2A6,6 0 0,1 14,8C14,8.61 13.91, 9.19 13.74, 9.74L22, 18M7, 5A2, 2 0 0, 0 5, 7A2, 2 0 0, 0 7, 9A2, 2 0 0, 0 9, 7A2, 2 0 0, 0 7, 5Z" class="i uq" transform="translate(253.27632812500002, 100.5) scale(0.5)"></path><text x="13" y="136" class="tf">FOD_ID<tspan x="309.29" class="ty">INTEGER?</tspan></text><text x="13" y="161" class="tf">FPA_ID<tspan x="309.29" class="ty">VARCHAR?</tspan></text><text x="13" y="186" class="tf">SOURCE_SYSTEM_TYPE<tspan x="309.29" class="ty">VARCHAR?</tspan></text><text x="13" y="211" class="tf">SOURCE_SYSTEM<tspan x="309.29" class="ty">VARCHAR?</tspan></text><text x="13" y="236" class="tf">NWCG_REPORTING_AGENCY<tspan x="309.29" class="ty">VARCHAR?</tspan></text><text x="13" y="261" class="tf">NWCG_REPORTING_UNIT_ID<tspan x="309.29" class="ty">VARCHAR?</tspan></text><text x="13" y="286" class="tf">NWCG_REPORTING_UNIT_NAME<tspan x="309.29" class="ty">VARCHAR?</tspan></text><text x="13" y="311" class="tf">SOURCE_REPORTING_UNIT<tspan x="309.29" class="ty">INTEGER?</tspan></text><text x="13" y="336" class="tf">SOURCE_REPORTING_UNIT_NAME<tspan x="309.29" class="ty">VARCHAR?</tspan></text><text x="13" y="361" class="tf">LOCAL_FIRE_REPORT_ID<tspan x="309.29" class="ty">INTEGER?</tspan></text><text x="13" y="386" class="tf">LOCAL_INCIDENT_ID<tspan x="309.29" class="ty">VARCHAR?</tspan></text><text x="13" y="411" class="tf">FIRE_CODE<tspan x="309.29" class="ty">VARCHAR?</tspan></text><text x="13" y="436" class="tf">FIRE_NAME<tspan x="309.29" class="ty">VARCHAR?</tspan></text><text x="13" y="461" class="tf">ICS_209_INCIDENT_NUMBER<tspan x="309.29" class="ty">VARCHAR?</tspan></text><text x="13" y="486" class="tf">ICS_209_NAME<tspan x="309.29" class="ty">VARCHAR?</tspan></text><text x="13" y="511" class="tf">MTBS_ID<tspan x="309.29" class="ty">VARCHAR?</tspan></text><text x="13" y="536" class="tf">MTBS_FIRE_NAME<tspan x="309.29" class="ty">VARCHAR?</tspan></text><text x="13" y="561" class="tf">COMPLEX_NAME<tspan x="309.29" class="ty">VARCHAR?</tspan></text><text x="13" y="586" class="tf">FIRE_YEAR<tspan x="309.29" class="ty">INTEGER</tspan></text><text x="13" y="611" class="tf">DISCOVERY_DATE<tspan x="309.29" class="ty">DATE</tspan></text><text x="13" y="636" class="tf">DISCOVERY_DOY<tspan x="309.29" class="ty">INTEGER</tspan></text><text x="13" y="661" class="tf">DISCOVERY_TIME<tspan x="309.29" class="ty">INTEGER?</tspan></text><text x="13" y="686" class="tf">STAT_CAUSE_CODE<tspan x="309.29" class="ty">INTEGER?</tspan></text><text x="13" y="711" class="tf">STAT_CAUSE_DESCR<tspan x="309.29" class="ty">VARCHAR?</tspan></text><text x="13" y="736" class="tf">CONT_DATE<tspan x="309.29" class="ty">DATE?</tspan></text><text x="13" y="761" class="tf">CONT_DOY<tspan x="309.29" class="ty">INTEGER?</tspan></text><text x="13" y="786" class="tf">CONT_TIME<tspan x="309.29" class="ty">INTEGER?</tspan></text><text x="13" y="811" class="tf">FIRE_SIZE<tspan x="309.29" class="ty">FLOAT?</tspan></text><text x="13" y="836" class="tf">FIRE_SIZE_CLASS<tspan x="309.29" class="ty">VARCHAR?</tspan></text><text x="13" y="861" class="tf">LATITUDE<tspan x="309.29" class="ty">FLOAT?</tspan></text><text x="13" y="886" class="tf">LONGITUDE<tspan x="309.29" class="ty">FLOAT?</tspan></text><text x="13" y="911" class="tf">OWNER_CODE<tspan x="309.29" class="ty">INTEGER?</tspan></text><text x="13" y="936" class="tf">OWNER_DESCR<tspan x="309.29" class="ty">VARCHAR?</tspan></text><text x="13" y="961" class="tf">STATE<tspan x="309.29" class="ty">VARCHAR?</tspan></text><text x="13" y="986" class="tf">COUNTY<tspan x="309.29" class="ty">INTEGER?</tspan></text><text x="13" y="1011" class="tf">FIPS_CODE<tspan x="309.29" class="ty">INTEGER?</tspan></text><text x="13" y="1036" class="tf">FIPS_NAME<tspan x="309.29" class="ty">VARCHAR?</tspan></text></svg><svg width="217.87" height="425" x="701.67" y="5.44" id="h4079427638" class="t"><rect height="40" width="217.87" class="th"></rect><text x="13" y="25" class="tht">EARTHQUAKE</text><rect height="385" width="217.87" class="t-bg"></rect><text x="13" y="61" class="tf pk">ID<tspan x="204.87" class="ty">int</tspan></text><path d="M7,14A2,2 0 0,1 5,12A2,2 0 0,1 7,10A2,2 0 0,1 9,12A2,2 0 0,1 7,14M12.65,10C11.83,7.67 9.61,6 7, 6A6, 6 0 0, 0 1, 12A6, 6 0 0, 0 7, 18C9.61, 18 11.83, 16.33 12.65, 14H17V18H21V14H23V10H12.65Z" class="i pk" transform="translate(172.196171875, 48) scale(0.65)"></path><text x="13" y="86" class="tf fk">DATA_SOURCE<tspan x="204.87" class="ty">varchar</tspan></text><text x="13" y="111" class="tf fk">EQ_ID<tspan x="204.87" class="ty">VARCHAR</tspan></text><path d="M22,18V22H18V19H15V16H12L9.74,13.74C9.19,13.91 8.61,14 8,14A6,6 0 0,1 2,8A6,6 0 0,1 8,2A6,6 0 0,1 14,8C14,8.61 13.91, 9.19 13.74, 9.74L22, 18M7, 5A2, 2 0 0, 0 5, 7A2, 2 0 0, 0 7, 9A2, 2 0 0, 0 9, 7A2, 2 0 0, 0 7, 5Z" class="i uq" transform="translate(131.078984375, 100.5) scale(0.5)"></path><text x="13" y="136" class="tf">Date<tspan x="204.87" class="ty">VARCHAR</tspan></text><text x="13" y="161" class="tf">Time<tspan x="204.87" class="ty">VARCHAR?</tspan></text><text x="13" y="186" class="tf">Latitude<tspan x="204.87" class="ty">FLOAT</tspan></text><text x="13" y="211" class="tf">Longitude<tspan x="204.87" class="ty">FLOAT</tspan></text><text x="13" y="236" class="tf">Type<tspan x="204.87" class="ty">VARCHAR?</tspan></text><text x="13" y="261" class="tf">Depth<tspan x="204.87" class="ty">FLOAT?</tspan></text><text x="13" y="286" class="tf">Magnitude<tspan x="204.87" class="ty">FLOAT?</tspan></text><text x="13" y="311" class="tf">Magnitude_Type<tspan x="204.87" class="ty">VARCHAR?</tspan></text><text x="13" y="336" class="tf">Source<tspan x="204.87" class="ty">VARCHAR?</tspan></text><text x="13" y="361" class="tf">Location_Source<tspan x="204.87" class="ty">VARCHAR?</tspan></text><text x="13" y="386" class="tf">Magnitude_Source<tspan x="204.87" class="ty">VARCHAR?</tspan></text><text x="13" y="411" class="tf">Status<tspan x="204.87" class="ty">VARCHAR?</tspan></text></svg><svg width="174.26" height="825" x="720.22" y="571.67" id="h1880097969" class="t"><rect height="40" width="174.26" class="th"></rect><text x="13" y="25" class="tht">TORNADO</text><rect height="785" width="174.26" class="t-bg"></rect><text x="13" y="61" class="tf pk">ID<tspan x="161.26" class="ty">int</tspan></text><path d="M7,14A2,2 0 0,1 5,12A2,2 0 0,1 7,10A2,2 0 0,1 9,12A2,2 0 0,1 7,14M12.65,10C11.83,7.67 9.61,6 7, 6A6, 6 0 0, 0 1, 12A6, 6 0 0, 0 7, 18C9.61, 18 11.83, 16.33 12.65, 14H17V18H21V14H23V10H12.65Z" class="i pk" transform="translate(128.586171875, 48) scale(0.65)"></path><text x="13" y="86" class="tf fk">DATA_SOURCE<tspan x="161.26" class="ty">varchar</tspan></text><text x="13" y="111" class="tf fk">om<tspan x="161.26" class="ty">varchar</tspan></text><path d="M22,18V22H18V19H15V16H12L9.74,13.74C9.19,13.91 8.61,14 8,14A6,6 0 0,1 2,8A6,6 0 0,1 8,2A6,6 0 0,1 14,8C14,8.61 13.91, 9.19 13.74, 9.74L22, 18M7, 5A2, 2 0 0, 0 5, 7A2, 2 0 0, 0 7, 9A2, 2 0 0, 0 9, 7A2, 2 0 0, 0 7, 5Z" class="i uq" transform="translate(105.24632812499999, 100.5) scale(0.5)"></path><text x="13" y="136" class="tf">yr<tspan x="161.26" class="ty">INTEGER</tspan></text><text x="13" y="161" class="tf">mo<tspan x="161.26" class="ty">INTEGER</tspan></text><text x="13" y="186" class="tf">dy<tspan x="161.26" class="ty">INTEGER</tspan></text><text x="13" y="211" class="tf">date<tspan x="161.26" class="ty">VARCHAR</tspan></text><text x="13" y="236" class="tf">time<tspan x="161.26" class="ty">VARCHAR?</tspan></text><text x="13" y="261" class="tf">tz<tspan x="161.26" class="ty">INTEGER?</tspan></text><text x="13" y="286" class="tf">st<tspan x="161.26" class="ty">VARCHAR?</tspan></text><text x="13" y="311" class="tf">stf<tspan x="161.26" class="ty">INTEGER?</tspan></text><text x="13" y="336" class="tf">stn<tspan x="161.26" class="ty">INTEGER?</tspan></text><text x="13" y="361" class="tf">mag<tspan x="161.26" class="ty">INTEGER?</tspan></text><text x="13" y="386" class="tf">inj<tspan x="161.26" class="ty">INTEGER?</tspan></text><text x="13" y="411" class="tf">fat<tspan x="161.26" class="ty">INTEGER?</tspan></text><text x="13" y="436" class="tf">loss<tspan x="161.26" class="ty">INTEGER?</tspan></text><text x="13" y="461" class="tf">closs<tspan x="161.26" class="ty">INTEGER?</tspan></text><text x="13" y="486" class="tf">slat<tspan x="161.26" class="ty">FLOAT</tspan></text><text x="13" y="511" class="tf">slon<tspan x="161.26" class="ty">FLOAT</tspan></text><text x="13" y="536" class="tf">elat<tspan x="161.26" class="ty">FLOAT?</tspan></text><text x="13" y="561" class="tf">elon<tspan x="161.26" class="ty">FLOAT?</tspan></text><text x="13" y="586" class="tf">len<tspan x="161.26" class="ty">FLOAT?</tspan></text><text x="13" y="611" class="tf">wid<tspan x="161.26" class="ty">INTEGER?</tspan></text><text x="13" y="636" class="tf">ns<tspan x="161.26" class="ty">INTEGER?</tspan></text><text x="13" y="661" class="tf">sn<tspan x="161.26" class="ty">INTEGER?</tspan></text><text x="13" y="686" class="tf">sg<tspan x="161.26" class="ty">INTEGER?</tspan></text><text x="13" y="711" class="tf">f1<tspan x="161.26" class="ty">INTEGER?</tspan></text><text x="13" y="736" class="tf">f2<tspan x="161.26" class="ty">INTEGER?</tspan></text><text x="13" y="761" class="tf">f3<tspan x="161.26" class="ty">INTEGER?</tspan></text><text x="13" y="786" class="tf">f4<tspan x="161.26" class="ty">INTEGER?</tspan></text><text x="13" y="811" class="tf">fc<tspan x="161.26" class="ty">INTEGER?</tspan></text></svg></g></g><text class="qdbd-link" x="10" y="20">www.quickdatabasediagrams.com</text></svg>